<?xml version="1.0" encoding="UTF-8"?>
<svg width="1400px" height="240px" viewBox="0 0 1400 240" version="1.1" xmlns="http://www.w3.org/2000/svg" xmlns:xlink="http://www.w3.org/1999/xlink">
    <!-- Generator: Sketch 43.1 (39012) - http://www.bohemiancoding.com/sketch -->
    <title>Combined Shape</title>
    <desc>Created with Sketch.</desc>
    <defs></defs>
    <g id="Page-1" stroke="none" stroke-width="1" fill="none" fill-rule="evenodd">
        <g id="005-Step-1-Select-Organization" transform="translate(-300.000000, -917.000000)" fill="#FBFDFF">
            <g id="Combined-Shape" transform="translate(300.000000, 237.000000)">
                <path d="M263.431902,1275 L1400,1275 L1400,751.510268 L1392.74094,751.510268 L1392.74094,736.724342 L1383.83274,736.724342 L1383.83274,722.188363 L1377.56504,722.188363 L1377.56504,708.780696 L1372.12051,708.780696 L1372.12051,722.188363 L1365.68743,722.188363 L1365.68743,736.724342 L1356.77829,736.724342 L1356.77829,751.510268 L1349.68554,751.510268 L1349.68554,847.746954 L1322.30126,847.746954 L1322.30126,763.66536 L1269.01928,737.35063 L1269.01928,828.950515 L1253.67705,828.950515 L1253.67705,801.883814 L1182.24789,801.883814 L1182.24789,866.542682 L1162.94771,866.542682 L1162.94771,763.66536 L1160.14368,754.266785 L1155.19437,754.266785 L1139.19249,745.495209 L1123.8512,754.266785 L1118.73744,754.266785 L1118.73744,763.66536 L1115.93248,847.746954 L1101.58162,847.746954 L1101.58162,710.284639 L1055.39143,710.284639 L1055.39143,810.154077 L1031.63622,810.154077 L1031.63622,767.925109 L1024.37809,767.925109 L1024.37809,761.410156 L1018.60467,761.410156 L1018.60467,754.768099 L1012.83125,754.768099 L1012.83125,748.252436 L1002.43741,748.252436 L1002.43741,754.768099 L996.663983,754.768099 L996.663983,761.410156 L990.891495,761.410156 L990.891495,767.925109 L984.232692,767.925109 L984.232692,723.339006 L976.870101,723.339006 L976.870101,708.342194 L967.83484,708.342194 L967.83484,693.598895 L961.477747,693.598895 L961.477747,680 L955.955567,680 L955.955567,693.598895 L949.430733,693.598895 L949.430733,708.342194 L940.394524,708.342194 L940.394524,723.339006 L933.200622,723.339006 L933.200622,820.948276 L905.425772,820.948276 L905.425772,735.66746 L851.383843,708.977414 L851.383843,801.883751 L835.822801,801.883751 L835.822801,774.431009 L763.374869,774.431009 L763.374869,840.01208 L743.799418,840.01208 L743.799418,735.66746 L740.955406,726.134838 L735.935501,726.134838 L719.70539,717.238156 L704.145295,726.134838 L698.958596,726.134838 L698.958596,735.66746 L696.113636,820.948276 L681.558091,820.948276 L681.558091,681.525392 L634.709117,681.525392 L634.709117,782.819227 L610.615088,782.819227 L610.615088,739.987965 L603.253445,739.987965 L603.253445,733.380092 L597.397679,733.380092 L597.397679,726.643302 L591.541912,726.643302 L591.541912,720.034709 L580.999827,720.034709 L580.999827,726.643302 L575.144061,726.643302 L575.144061,733.380092 L569.289242,733.380092 L569.289242,739.987965 L561.758911,739.987965 L561.758911,799.147379 L557.163099,799.147379 L557.163099,788.522097 L550.761592,788.522097 L550.761592,778.07643 L546.257574,778.07643 L546.257574,768.441576 L542.345095,768.441576 L542.345095,778.07643 L537.722232,778.07643 L537.722232,788.522097 L531.320054,788.522097 L531.320054,799.147379 L526.223155,799.147379 L526.223155,868.30381 L506.544598,868.30381 L506.544598,807.882122 L468.255746,788.972153 L468.255746,854.796543 L457.230705,854.796543 L457.230705,835.346201 L405.90115,835.346201 L405.90115,881.810567 L392.03189,881.810567 L392.03189,807.882122 L390.016899,801.128234 L386.460283,801.128234 L374.961206,794.82491 L363.936836,801.128234 L360.262046,801.128234 L360.262046,807.882122 L358.246384,868.30381 L347.933741,868.30381 L347.933741,769.522321 L314.741117,769.522321 L314.741117,841.289276 L297.670432,841.289276 L297.670432,810.943212 L292.454688,810.943212 L292.454688,806.261516 L288.305862,806.261516 L288.305862,801.488482 L284.157036,801.488482 L284.157036,796.806276 L276.68794,796.806276 L276.68794,801.488482 L272.539113,801.488482 L272.539113,806.261516 L268.390959,806.261516 L268.390959,810.943212 L263.055698,810.943212 L263.055698,819.018438 L246.067543,819.018438 L246.067543,810.128703 L240.711666,810.128703 L240.711666,801.389243 L236.94334,801.389243 L236.94334,793.328158 L233.669929,793.328158 L233.669929,801.389243 L229.80217,801.389243 L229.80217,810.128703 L224.445732,810.128703 L224.445732,819.018438 L220.181366,819.018438 L220.181366,876.878774 L203.717129,876.878774 L203.717129,826.326438 L171.682424,810.505245 L171.682424,865.5778 L162.458227,865.5778 L162.458227,849.304501 L119.512903,849.304501 L119.512903,888.179321 L107.909065,888.179321 L107.909065,826.326438 L106.223205,826.326438 L106.223205,820.675737 L103.247531,820.675737 L93.6267267,815.402006 L84.4030912,820.675737 L81.328546,820.675737 L81.328546,826.326438 L79.6421245,826.326438 L79.6421245,876.878774 L71.0139608,876.878774 L71.0139608,794.232372 L43.2430597,794.232372 L43.2430597,854.276827 L28.9607215,854.276827 L28.9607215,828.887525 L24.5969234,828.887525 L24.5969234,824.970543 L21.1257714,824.970543 L21.1257714,820.977142 L17.6546194,820.977142 L17.6546194,817.059733 L11.4055347,817.059733 L11.4055347,820.977142 L7.93438268,820.977142 L7.93438268,824.970543 L4.46379246,824.970543 L4.46379246,828.887525 L0,828.887525 L0,1286.38281 L263.431902,1286.38281 L263.431902,1275 Z"></path>
            </g>
        </g>
    </g>
</svg>