<?xml version="1.0" encoding="UTF-8"?>
<svg width="562px" height="137px" viewBox="0 0 562 137" version="1.1" xmlns="http://www.w3.org/2000/svg" xmlns:xlink="http://www.w3.org/1999/xlink">
    <!-- Generator: Sketch 43.1 (39012) - http://www.bohemiancoding.com/sketch -->
    <title>Fill 1 Copy 2</title>
    <desc>Created with Sketch.</desc>
    <defs></defs>
    <g id="Page-1" stroke="none" stroke-width="1" fill="none" fill-rule="evenodd" opacity="0.427646922">
        <g id="009-Step-2-Select-Repos" transform="translate(-311.000000, -1020.000000)" fill="#FFFFFF">
            <g id="Combined-Shape" transform="translate(300.000000, 237.000000)">
                <g id="Group-2" transform="translate(434.000000, 969.500000) scale(-1, 1) translate(-434.000000, -969.500000) translate(-22.000000, 783.000000)">
                    <path d="M780.77948,130.203175 C783.652825,113.92869 775.989762,96.6952374 759.707883,89.9934068 C744.382974,82.3350399 727.141692,87.1213673 716.605285,98.6095252 C717.563472,74.6754577 702.238563,51.6979263 678.292405,44.0395595 C652.432305,35.423441 624.655832,46.9115989 612.204268,68.9313787 C596.879359,28.7216103 557.608292,2.84217094e-14 511.633566,2.84217094e-14 C456.080619,2.84217094e-14 410.105893,42.1240562 404.359204,96.6952374 L396.696142,96.6952374 C343.059569,96.6952374 299,140.734797 299,194.348226 C299,247.960441 343.059569,292 396.696142,292 L404.359204,292 L824.839049,292 C872.730149,292 912,252.747983 912,204.879848 C912,157.010498 872.730149,118.715017 824.839049,118.715017 C808.555954,118.715017 794.189232,123.501344 780.77948,130.203175 Z" id="Fill-1-Copy-2"></path>
                </g>
            </g>
        </g>
    </g>
</svg>