<?xml version="1.0" encoding="UTF-8"?>
<svg width="172px" height="44px" viewBox="0 0 172 44" version="1.1" xmlns="http://www.w3.org/2000/svg" xmlns:xlink="http://www.w3.org/1999/xlink">
    <!-- Generator: Sketch 43.1 (39012) - http://www.bohemiancoding.com/sketch -->
    <title>Group 10</title>
    <desc>Created with Sketch.</desc>
    <defs></defs>
    <g id="Page-1" stroke="none" stroke-width="1" fill="none" fill-rule="evenodd">
        <g id="001-Marketin-Page---Testers" transform="translate(-340.000000, -1907.000000)" fill="#8B8D8F">
            <g id="Group-10" transform="translate(340.000000, 1907.000000)">
                <text id="a-Koding-organizatio" font-family="GorditaRegular, Gordita" font-size="12" font-weight="normal">
                    <tspan x="39" y="40">a Koding organization.</tspan>
                </text>
                <g id="Group-4">
                    <g id="Group-7">
                        <g id="Group-6">
                            <g id="Group-5" fill-rule="nonzero">
                                <path d="M21.3159169,19.6167396 L18.9571585,16.2416057 L21.8847185,12.0441319 L27.1769387,19.6167396 L21.3159169,19.6167396 Z M15.7363977,11.6330374 L16.0068354,12.0200052 L18.939727,7.83016023 L18.6692892,7.4431924 L15.7363977,11.6330374 Z M12.8067042,7.44095563 L7.60649087,0 L13.4675127,0 L15.7395957,3.25111061 L12.8067042,7.44095563 Z" id="Combined-Shape"></path>
                                <polygon id="Combined-Shape" points="27.1414541 0 10.0677378 24.3910232 0 10.0085406 5.86415077 10.0085406 10.0677378 16.013665 21.2773033 0 27.1414541 0"></polygon>
                            </g>
                            <path d="M45.87771,12.1388625 L42.0371142,12.1388625 L42.0371142,17.5152605 L45.5576604,17.5152605 C46.5391509,17.5152605 47.2880596,17.296035 47.804409,16.8575776 C48.3207583,16.4191201 48.5789291,15.7827279 48.5789291,14.9483816 C48.5789291,13.0753595 47.6785318,12.1388625 45.87771,12.1388625 Z M42.0371142,5.25554069 L42.0371142,10.0572643 L45.1223929,10.0572643 C46.0100017,10.0572643 46.701302,9.85293765 47.1963146,9.44427828 C47.6913272,9.03561891 47.9388298,8.45669349 47.9388298,7.70748464 C47.9388298,6.07284717 46.897612,5.25554069 44.8151452,5.25554069 L42.0371142,5.25554069 Z M45.5576604,19.7501052 L39.2334792,19.7501052 L39.2334792,3.02069593 L44.8151452,3.02069593 C46.7098486,3.02069593 48.1692604,3.40380835 49.1934244,4.17004466 C50.2175885,4.93628098 50.7296628,6.07284781 50.7296628,7.57977923 C50.7296628,8.33750181 50.5120312,9.01433374 50.0767615,9.61029532 C49.6414918,10.2062569 49.0355372,10.6532214 48.2588795,10.9512022 C49.2489047,11.1725593 50.0148825,11.6429362 50.556836,12.362347 C51.0987894,13.0817578 51.3697621,13.9437607 51.3697621,14.9483816 C51.3697621,16.5063955 50.8619551,17.6961724 49.8463257,18.517748 C48.8306964,19.3393236 47.4011556,19.7501052 45.5576604,19.7501052 Z M56.7850022,19.7501052 L53.9813673,19.7501052 L53.9813673,7.31159786 L56.5417645,7.31159786 L56.7209923,9.1122442 C57.4037683,7.75856004 58.3852441,7.08172811 59.6654491,7.08172811 C59.9897677,7.08172811 60.2799432,7.12855296 60.5359842,7.22220407 L60.1903305,9.82739452 L58.9997458,9.7890829 C57.9329083,9.7890829 57.1946678,10.2275338 56.7850022,11.1044487 L56.7850022,19.7501052 Z M65.6823826,20.0182866 C64.3936429,20.0182866 63.3993652,19.6883842 62.6995198,19.0285696 C61.9996744,18.368755 61.649757,17.4407716 61.649757,16.2445916 C61.649757,15.0484116 62.1234257,14.1182998 63.0707774,13.4542283 C64.0181291,12.7901568 65.3623242,12.4581261 67.103403,12.4581261 L69.2797407,12.4581261 L69.2797407,11.3598595 C69.2797407,10.7043018 69.0877128,10.1934852 68.7036513,9.82739452 C68.3195898,9.46130384 67.7883127,9.27826124 67.109804,9.27826124 C66.4312954,9.27826124 65.9021519,9.42937781 65.5223578,9.73161546 C65.1425636,10.0338531 64.9526694,10.4318644 64.9526694,10.9256611 L62.2514503,10.9256611 L62.2386483,10.8618084 C62.1874401,9.84867369 62.6355051,8.96964355 63.5828569,8.22469157 C64.5302086,7.4797396 65.7463851,7.1072692 67.2314229,7.1072692 C68.7164607,7.1072692 69.8942317,7.4797396 70.7647711,8.22469157 C71.6353105,8.96964355 72.0705737,10.0232027 72.0705737,11.3854006 L72.0705737,16.915045 C72.0705737,17.9366935 72.2199287,18.8902177 72.5186432,19.7756463 L69.6766023,19.7884169 C69.4717695,19.1413729 69.3437509,18.5326498 69.2925427,17.9622294 C68.8828771,18.5752185 68.3665355,19.0711362 67.7435024,19.4499975 C67.1204692,19.8288588 66.4334362,20.0182866 65.6823826,20.0182866 Z M64.4405899,16.2254358 L64.4533919,16.2254358 C64.4533919,16.7107188 64.6091479,17.0895744 64.9206644,17.362014 C65.232181,17.6344536 65.7037161,17.7706713 66.3352839,17.7706713 C66.9668517,17.7706713 67.5642717,17.6003991 68.1275619,17.2598496 C68.6908521,16.9193002 69.0706406,16.5149037 69.2669387,16.0466482 L69.2669387,14.2076902 L67.0393931,14.2076902 C66.2542007,14.2076902 65.624776,14.4013748 65.1511002,14.7887499 C64.6774243,15.1761249 64.4405899,15.6550154 64.4405899,16.2254358 Z M76.7945065,7.31159786 L79.3421018,15.5485971 L79.5469336,16.5574699 L79.6109435,16.5574699 L79.8285773,15.5485971 L82.3121626,7.31159786 L85.2054114,7.31159786 L80.7759242,19.7501052 L78.3435469,19.7501052 L73.9012577,7.31159786 L76.7945065,7.31159786 Z M94.4356434,12.0239277 C94.4356434,11.2151227 94.2286801,10.5680884 93.8147471,10.0828054 C93.4008142,9.59752235 92.8247305,9.35488449 92.086479,9.35488449 C91.3482274,9.35488449 90.752941,9.62093478 90.3006019,10.1530433 C89.8482628,10.6851519 89.5708892,11.3853962 89.4684728,12.2537974 L89.4812748,12.3176501 L94.4356434,12.3176501 L94.4356434,12.0239277 Z M96.8808228,18.5496743 C95.7457077,19.5287541 94.2606921,20.0182866 92.4257316,20.0182866 C90.5907711,20.0182866 89.1462948,19.4478748 88.0922593,18.307034 C87.0382238,17.1661933 86.511214,15.6805685 86.511214,13.8501151 L86.511214,13.3903756 C86.511214,11.5684359 87.0296893,10.0636555 88.0666553,8.87598919 C89.1036214,7.68832289 90.432881,7.09662706 92.054474,7.10088393 C93.676067,7.10514079 94.9370501,7.60744374 95.8374609,8.60780782 C96.7378718,9.6081719 97.1880705,10.9767346 97.1880705,12.7135369 L97.1880705,14.3609367 L89.4172649,14.3609367 L89.3916609,14.4247894 C89.4428691,15.4379241 89.7394455,16.2509738 90.2813989,16.8639629 C90.8233524,17.4769519 91.5551919,17.7834418 92.4769396,17.7834418 C93.2109238,17.7834418 93.8446157,17.6983058 94.3780345,17.528031 C94.9114533,17.3577563 95.4427304,17.0895776 95.9718818,16.7234869 L96.8680208,18.5496743 L96.8808228,18.5496743 Z M126.338193,19.7501052 L125.006786,15.8423195 L118.439367,15.8423195 L117.107961,19.7501052 L114.26592,19.7501052 L120.436477,3.02069593 L123.086488,3.02069593 L129.180234,19.7501052 L126.338193,19.7501052 Z M111.578065,17.2895573 L113.574842,19.7501052 L110.201585,19.7501052 L109.65067,19.0712348 C108.605174,19.7026048 107.384768,20.0182866 105.989436,20.0182866 C103.962445,20.0182866 102.31954,19.3520967 101.060671,18.0196969 C99.801803,16.687297 99.1723783,14.9867036 99.1723783,12.9178656 L99.1723783,9.90401777 C99.1723783,7.84369345 99.801803,6.14522842 101.060671,4.80857174 C102.31954,3.47191505 103.947509,2.80359673 105.944629,2.80359673 C107.293112,2.80359673 108.49862,3.11008666 109.56119,3.72307571 C110.62376,4.33606477 111.445213,5.18104048 112.025572,6.25802819 C112.605932,7.3350159 112.896107,8.55033361 112.896107,9.90401777 L112.896107,12.9178656 C112.896107,14.6261666 112.456764,16.0833877 111.578065,17.2895573 Z M109.762323,15.0520912 C109.990958,14.4253976 110.105274,13.713991 110.105274,12.9178656 L110.105274,9.87847669 C110.105274,8.45668263 109.72762,7.305217 108.972299,6.42404523 C108.216978,5.54287346 107.218433,5.10229419 105.976634,5.10229419 C104.734835,5.10229419 103.755493,5.54287346 103.038578,6.42404523 C102.321663,7.305217 101.963211,8.45668263 101.963211,9.87847669 L101.963211,12.9178656 C101.963211,14.3481733 102.321663,15.5081526 103.038578,16.3978381 C103.755493,17.2875236 104.739102,17.7323597 105.989436,17.7323597 C106.80225,17.7323597 107.508659,17.5452707 108.108669,17.1710891 L104.683221,12.9500473 L108.056479,12.9500473 L109.762323,15.0520912 Z M121.716676,6.35380725 L121.780686,6.35380725 L124.213063,13.5053105 L119.245893,13.5053105 L121.716676,6.35380725 Z" id="Combined-Shape-Copy-3"></path>
                        </g>
                    </g>
                </g>
            </g>
        </g>
    </g>
</svg>