<?xml version="1.0" encoding="UTF-8"?>
<svg width="123px" height="24px" viewBox="0 0 123 24" version="1.1" xmlns="http://www.w3.org/2000/svg" xmlns:xlink="http://www.w3.org/1999/xlink">
    <!-- Generator: Sketch 43.1 (39012) - http://www.bohemiancoding.com/sketch -->
    <title>Group 6</title>
    <desc>Created with Sketch.</desc>
    <defs></defs>
    <g id="Page-1" stroke="none" stroke-width="1" fill="none" fill-rule="evenodd">
        <g id="005-Step-1-Select-Organization" transform="translate(-340.000000, -257.000000)" fill="#FFFFFF">
            <g id="Group-12" transform="translate(300.000000, 237.000000)">
                <g id="Group-7" transform="translate(40.000000, 20.000000)">
                    <g id="Group-6">
                        <g id="Group-5" fill-rule="nonzero">
                            <path d="M20.2383187,18.6250412 L17.9988043,15.4205327 L20.7783654,11.4352567 L25.8030443,18.6250412 L20.2383187,18.6250412 Z M14.9408648,11.0449445 L15.197631,11.4123497 L17.982254,7.43431679 L17.7254879,7.06691161 L14.9408648,11.0449445 Z M12.1592781,7.06478791 L7.22195474,0 L12.7866803,0 L14.9439012,3.086755 L12.1592781,7.06478791 Z" id="Combined-Shape"></path>
                            <polygon id="Combined-Shape" points="25.7693536 0 9.5587766 23.1579672 0 9.50257203 5.56769635 9.50257203 9.5587766 15.2041152 20.2016573 0 25.7693536 0"></polygon>
                        </g>
                        <path d="M43.5584228,11.5251983 L39.9119832,11.5251983 L39.9119832,16.6297995 L43.2545529,16.6297995 C44.1864254,16.6297995 44.897474,16.4216568 45.38772,16.005365 C45.877966,15.5890731 46.1230853,14.9848528 46.1230853,14.1926859 C46.1230853,12.414352 45.2682064,11.5251983 43.5584228,11.5251983 Z M39.9119832,4.98985375 L39.9119832,9.54883252 L42.8412897,9.54883252 C43.6840266,9.54883252 44.3403792,9.35483536 44.8103671,8.96683523 C45.280355,8.5788351 45.5153454,8.02917649 45.5153454,7.31784291 C45.5153454,5.76584237 44.526765,4.98985375 42.5495745,4.98985375 L39.9119832,4.98985375 Z M43.2545529,18.7516647 L37.2500824,18.7516647 L37.2500824,2.86798863 L42.5495745,2.86798863 C44.3484937,2.86798863 45.7341269,3.2317333 46.7065157,3.95923355 C47.6789044,4.6867338 48.1650915,5.76584298 48.1650915,7.19659347 C48.1650915,7.91601039 47.958462,8.55862597 47.5451968,9.1244595 C47.1319315,9.69029302 46.5566102,10.1146618 45.8192154,10.3975786 C46.7591911,10.6077453 47.486446,11.0543429 48.0010017,11.7373848 C48.5155574,12.4204267 48.7728314,13.2388522 48.7728314,14.1926859 C48.7728314,15.6719364 48.2906959,16.8015657 47.3264104,17.5816076 C46.3621249,18.3616495 45.0048526,18.7516647 43.2545529,18.7516647 Z M53.9143112,18.7516647 L51.2524103,18.7516647 L51.2524103,6.94196966 L53.68337,6.94196966 L53.8535372,8.6515867 C54.5017964,7.36633626 55.433655,6.72372067 56.6491409,6.72372067 C56.957064,6.72372067 57.23257,6.76817836 57.4756672,6.85709505 L57.1474876,9.33058354 L56.0170914,9.2942087 C55.0041864,9.2942087 54.3032667,9.71049427 53.9143112,10.5430779 L53.9143112,18.7516647 Z M62.3618962,19.0062885 C61.138307,19.0062885 60.1942938,18.6930639 59.5298282,18.0666054 C58.8653625,17.4401468 58.5331347,16.5590764 58.5331347,15.4233677 C58.5331347,14.2876589 58.9828577,13.4045677 59.8823173,12.7740675 C60.7817769,12.1435673 62.058018,11.8283219 63.7110789,11.8283219 L65.7773946,11.8283219 L65.7773946,10.7855768 C65.7773946,10.1631599 65.5950745,9.67816699 65.2304287,9.33058354 C64.8657829,8.98300008 64.3613638,8.80921096 63.7171563,8.80921096 C63.0729487,8.80921096 62.5705554,8.95268803 62.2099612,9.23964646 C61.8493671,9.52660489 61.6690727,9.90449519 61.6690727,10.3733287 L59.1044102,10.3733287 L59.0922554,10.312704 C59.043636,9.35078697 59.4690497,8.51619503 60.3685093,7.80890312 C61.2679688,7.10161121 62.4226632,6.74797056 63.8326269,6.74797056 C65.2425905,6.74797056 66.3608208,7.10161121 67.1873513,7.80890312 C68.0138817,8.51619503 68.4271407,9.51649287 68.4271407,10.8098266 L68.4271407,16.0599272 C68.4271407,17.0299275 68.5689453,17.9352476 68.8525587,18.7759146 L66.1541934,18.7880395 C65.9597156,18.173706 65.8381689,17.5957561 65.7895494,17.0541726 C65.4005939,17.6361728 64.9103553,18.10702 64.3188188,18.4667285 C63.7272823,18.8264369 63.0749813,19.0062885 62.3618962,19.0062885 Z M61.1828808,15.4051802 L61.1950356,15.4051802 C61.1950356,15.8659304 61.3429175,16.2256335 61.6386857,16.4843002 C61.934454,16.742967 62.3821512,16.8722984 62.981791,16.8722984 C63.5814307,16.8722984 64.1486489,16.7106341 64.6834628,16.3873007 C65.2182766,16.0639672 65.5788653,15.6800145 65.7652398,15.235431 L65.7652398,13.4894392 L63.6503049,13.4894392 C62.9048068,13.4894392 62.3072019,13.6733323 61.8574721,14.0411241 C61.4077423,14.4089159 61.1828808,14.8635967 61.1828808,15.4051802 Z M72.9122614,6.94196966 L75.3310663,14.7625582 L75.5255431,15.7204288 L75.5863171,15.7204288 L75.7929487,14.7625582 L78.1509796,6.94196966 L80.8979641,6.94196966 L76.6924038,18.7516647 L74.382992,18.7516647 L70.1652769,6.94196966 L72.9122614,6.94196966 Z M89.6615738,11.4160738 C89.6615738,10.6481569 89.4650732,10.0338326 89.0720661,9.57308241 C88.679059,9.11233225 88.1320985,8.88196062 87.4311683,8.88196062 C86.7302381,8.88196062 86.1650456,9.13456109 85.7355739,9.6397696 C85.3061022,10.1449781 85.0427509,10.8098225 84.945512,11.6343228 L84.9576668,11.6949475 L89.6615738,11.6949475 L89.6615738,11.4160738 Z M91.9831404,17.61192 C90.9054095,18.5415036 89.495467,19.0062885 87.7532705,19.0062885 C86.011074,19.0062885 84.6396212,18.4647131 83.6388711,17.381546 C82.6381211,16.298379 82.1377535,14.887858 82.1377535,13.1499408 L82.1377535,12.7134428 C82.1377535,10.9836089 82.6300179,9.55490063 83.6145615,8.42727524 C84.5991052,7.29964985 85.8611658,6.73786642 87.4007813,6.74190809 C88.9403968,6.74594976 90.1376325,7.22285943 90.9925243,8.17265143 C91.8474161,9.12244342 92.2748555,10.4218202 92.2748555,12.0708208 L92.2748555,13.6349385 L84.8968928,13.6349385 L84.8725832,13.6955632 C84.9212026,14.6574802 85.202786,15.4294272 85.7173417,16.0114274 C86.2318974,16.5934276 86.9267398,16.8844234 87.8018897,16.8844234 C88.4987683,16.8844234 89.1004248,16.8035912 89.6068772,16.6419245 C90.1133297,16.4802578 90.6177488,16.2256365 91.1201497,15.878053 L91.9709856,17.61192 L91.9831404,17.61192 Z M119.951332,18.7516647 L118.687233,15.0414319 L112.451821,15.0414319 L111.187722,18.7516647 L108.489357,18.7516647 L114.34797,2.86798863 L116.864013,2.86798863 L122.649697,18.7516647 L119.951332,18.7516647 Z M105.937383,16.4155065 L107.833215,18.7516647 L104.630489,18.7516647 L104.107424,18.1071136 C103.114782,18.7065656 101.956073,19.0062885 100.63128,19.0062885 C98.7067602,19.0062885 97.1469099,18.3737769 95.9516821,17.1087348 C94.7564543,15.8436927 94.1588493,14.2290705 94.1588493,12.2648199 L94.1588493,9.4033332 C94.1588493,7.44716586 94.7564543,5.83456449 95.9516821,4.56548072 C97.1469099,3.29639696 98.6925797,2.66186459 100.588738,2.66186459 C101.86905,2.66186459 103.013615,2.95286032 104.022468,3.53486052 C105.031322,4.11686072 105.811247,4.9191198 106.362267,5.94166182 C106.913287,6.96420383 107.188793,8.11808276 107.188793,9.4033332 L107.188793,12.2648199 C107.188793,13.8867601 106.77166,15.2703132 105.937383,16.4155065 Z M104.213433,14.2911525 C104.43051,13.6961406 104.539047,13.0206982 104.539047,12.2648199 L104.539047,9.37908331 C104.539047,8.02916618 104.180484,6.93591137 103.463348,6.09928608 C102.746211,5.26266079 101.798146,4.84435443 100.619125,4.84435443 C99.4401034,4.84435443 98.5102706,5.26266079 97.8295985,6.09928608 C97.1489264,6.93591137 96.8085954,8.02916618 96.8085954,9.37908331 L96.8085954,12.2648199 C96.8085954,13.6228203 97.1489264,14.7241584 97.8295985,15.568867 C98.5102706,16.4135756 99.444155,16.8359236 100.63128,16.8359236 C101.403003,16.8359236 102.0737,16.6582926 102.643378,16.3030273 L99.391099,12.2953747 L102.593826,12.2953747 L104.213433,14.2911525 Z M115.56345,6.03259889 L115.624224,6.03259889 L117.933635,12.8225673 L113.217573,12.8225673 L115.56345,6.03259889 Z" id="Combined-Shape-Copy-3"></path>
                    </g>
                </g>
            </g>
        </g>
    </g>
</svg>